<!DOCTYPE svg PUBLIC "-//W3C//DTD SVG 1.1//EN" "http://www.w3.org/Graphics/SVG/1.1/DTD/svg11.dtd">
<!-- Uploaded to: SVG Repo, www.svgrepo.com, Transformed by: SVG Repo Mixer Tools -->
<svg fill="#3D5050" width="64px" height="64px" viewBox="-5.52 -5.52 35.04 35.04" xmlns="http://www.w3.org/2000/svg" stroke="#3D5050" stroke-width="0.00024000000000000003">
<g id="SVGRepo_bgCarrier" stroke-width="0"/>
<g id="SVGRepo_tracerCarrier" stroke-linecap="round" stroke-linejoin="round"/>
<g id="SVGRepo_iconCarrier">
<path d="M12 1.993C6.486 1.994 2 6.48 2 11.994c0 5.513 4.486 9.999 10 10 5.514 0 10-4.486 10-10s-4.485-10-10-10.001zm0 18.001c-4.411-.001-8-3.59-8-8 0-4.411 3.589-8 8-8.001 4.411.001 8 3.59 8 8.001s-3.589 8-8 8z"/>
<path d="M13 8h-2v4H7.991l4.005 4.005L16 12h-3z"/>
</g>
</svg>